HIERARCHY
ROOT Hips
{
	OFFSET -3.958830 18.904000 13.208200
	CHANNELS 6 Xposition Yposition Zposition Zrotation Yrotation Xrotation 
	JOINT LHipJoint
	{
		OFFSET 0.000000 0.000000 0.000000
		CHANNELS 3 Zrotation Yrotation Xrotation
		JOINT LeftUpLeg
		{
			OFFSET 1.800000 -1.400000 0.085000
			CHANNELS 3 Zrotation Yrotation Xrotation
			JOINT LeftLeg
			{
				OFFSET 2.215000 -6.000000 0.000000
				CHANNELS 3 Zrotation Yrotation Xrotation
				JOINT LeftFoot
				{
					OFFSET 2.500000 -6.900000 0.000000
					CHANNELS 3 Zrotation Yrotation Xrotation
					JOINT LeftToeBase
					{
						OFFSET 0.200000 -0.500000 1.950000
						CHANNELS 3 Zrotation Yrotation Xrotation
						End Site
						{
							OFFSET 0.000000 0.000000 0.000000
						}
					}
				}
			}
		}
	}
	JOINT RHipJoint
	{
		OFFSET 0.000000 0.000000 0.000000
		CHANNELS 3 Zrotation Yrotation Xrotation
		JOINT RightUpLeg
		{
			OFFSET -1.800000 -1.400000 0.085000
			CHANNELS 3 Zrotation Yrotation Xrotation
			JOINT RightLeg
			{
				OFFSET -2.215000 -6.000000 0.000000
				CHANNELS 3 Zrotation Yrotation Xrotation
				JOINT RightFoot
				{
					OFFSET -2.500000 -6.900000 0.000000
					CHANNELS 3 Zrotation Yrotation Xrotation
					JOINT RightToeBase
					{
						OFFSET -0.200000 -0.500000 1.950000
						CHANNELS 3 Zrotation Yrotation Xrotation
						End Site
						{
							OFFSET 0.000000 0.000000 0.000000
						}
					}
				}
			}
		}
	}
	JOINT LowerBack
	{
		OFFSET 0.000000 0.000000 0.000000
		CHANNELS 3 Zrotation Yrotation Xrotation
		JOINT Spine
		{
			OFFSET -0.087000 1.940000 -0.288900
			CHANNELS 3 Zrotation Yrotation Xrotation
			JOINT Spine1
			{
				OFFSET 0.000000 1.950000 0.060000
				CHANNELS 3 Zrotation Yrotation Xrotation
				JOINT Neck
				{
					OFFSET 0.000000 0.000000 0.000000
					CHANNELS 3 Zrotation Yrotation Xrotation
					JOINT Neck1
					{
						OFFSET 0.000000 1.600000 0.340000
						CHANNELS 3 Zrotation Yrotation Xrotation
						JOINT Head
						{
							OFFSET 0.000000 1.667000 -0.240000
							CHANNELS 3 Zrotation Yrotation Xrotation
							End Site
							{
								OFFSET 0.000000 0.000000 0.000000
							}
						}
					}
				}
				JOINT LeftShoulder
				{
					OFFSET 0.000000 0.000000 0.000000
					CHANNELS 3 Zrotation Yrotation Xrotation
					JOINT LeftArm
					{
						OFFSET 2.700000 1.550000 -0.730000
						CHANNELS 3 Zrotation Yrotation Xrotation
						JOINT LeftForeArm
						{
							OFFSET 5.450000 0.000000 0.000000
							CHANNELS 3 Zrotation Yrotation Xrotation
							JOINT LeftHand
							{
								OFFSET 3.450000 0.000000 0.000000
								CHANNELS 3 Zrotation Yrotation Xrotation
								JOINT LeftHandIndex1
								{
									OFFSET 0.750000 0.000000 0.000000
									CHANNELS 3 Zrotation Yrotation Xrotation
									End Site
									{
										OFFSET 0.000000 0.000000 0.000000
									}
								}
							}
						}
					}
				}
				JOINT RightShoulder
				{
					OFFSET 0.000000 0.000000 0.000000
					CHANNELS 3 Zrotation Yrotation Xrotation
					JOINT RightArm
					{
						OFFSET -2.700000 1.550000 -0.730000
						CHANNELS 3 Zrotation Yrotation Xrotation
						JOINT RightForeArm
						{
							OFFSET -5.450000 0.000000 0.000000
							CHANNELS 3 Zrotation Yrotation Xrotation
							JOINT RightHand
							{
								OFFSET -3.450000 0.000000 0.000000
								CHANNELS 3 Zrotation Yrotation Xrotation
								JOINT RightHandIndex1
								{
									OFFSET -0.750000 0.000000 0.000000
									CHANNELS 3 Zrotation Yrotation Xrotation
									End Site
									{
										OFFSET 0.000000 0.000000 0.000000
									}
								}
							}
						}
					}
				}
			}
		}
	}
}
MOTION
Frames: 9
Frame Time: 0.016667
0.099470 17.524590 -5.051240 -154.004331 59.188302 178.647468 -15.515289 13.296421 3.095773 13.243611 -0.574595 12.450356 -10.119530 7.246093 4.224164 0.416975 6.016107 2.519278 0.170640 -0.484210 0.730520 18.051977 -8.280233 5.046305 12.976109 12.438021 -33.292492 18.649156 -32.231965 75.502853 -3.224630 -14.397155 -0.088939 -0.489540 -0.522460 0.029020 -2.770288 -4.701805 -9.322381 7.362331 -12.058555 49.552735 1.914426 -6.242272 -8.461783 -0.949035 6.787939 -22.302633 6.065843 -24.509324 59.842389 17.360870 -30.437350 -15.001080 -20.547274 -30.080905 12.183777 -11.191435 5.558373 -7.337091 -111.415347 -78.061673 92.952517 -2.991616 1.886114 1.037230 -0.549490 0.369840 -0.253390 19.284807 23.956086 14.239776 9.029968 -2.445005 -6.766719 -113.933334 84.168039 -121.199502 2.928001 -0.310808 -0.120040 -0.106260 -0.102760 -0.428840 
0.039930 17.504980 -5.076790 -145.640689 62.193490 -174.368353 -15.560478 13.251925 3.070727 16.150195 -1.117267 12.889025 -10.555311 7.544495 4.631014 0.517671 6.286511 2.434200 0.271040 -0.294170 0.652520 17.992997 -8.122613 5.000336 9.582908 11.420853 -35.257585 24.498290 -37.948890 74.550444 -3.494062 -15.338238 -0.274165 -0.384260 -0.448340 0.083210 -2.700578 -4.939823 -9.309376 9.862337 -12.771827 49.351615 2.050056 -8.016468 -1.551952 -0.498952 6.924561 -21.004969 7.441968 -23.744892 54.768266 18.413740 -27.197960 -17.823200 -17.929843 -33.658643 13.337214 -13.760275 4.072860 -11.706413 -123.800665 -78.663581 105.838120 -2.832620 2.378436 0.923320 -0.488530 0.341730 -0.163510 16.064837 27.899058 11.400567 13.193447 -4.447908 -19.138648 157.026622 88.657533 153.048076 2.076378 -1.026164 -0.041140 -0.124720 -0.138230 -0.345120 
-0.012140 17.467450 -5.210460 -123.010011 70.351147 -150.770029 -15.508672 12.941937 3.066090 16.533212 -1.250714 14.264869 -10.691249 7.317564 2.768268 0.682511 6.324682 2.490497 0.358160 -0.147740 0.622990 18.064888 -7.962337 5.189641 7.175990 11.960770 -40.090141 27.470155 -43.012887 77.561388 -3.836589 -16.623725 -0.502463 -0.316500 -0.391950 0.114320 -2.960205 -4.763531 -9.423884 13.114695 -15.019187 49.913984 0.348606 -9.800037 1.459230 0.691101 5.911753 -19.230566 5.068906 -20.621865 48.083969 15.939510 -23.346180 -17.943210 -15.928863 -34.146848 13.918905 -14.915139 3.380044 -13.256676 -144.115535 -77.068480 125.247949 -2.685670 3.123981 0.791530 -0.437050 0.308110 -0.056050 12.276135 28.861529 9.465820 16.706784 -5.295744 -24.967502 106.710635 87.953021 108.110683 1.780988 3.615071 0.027280 -0.153730 -0.226780 -0.267390 
0.041140 17.459660 -5.304620 -72.606032 73.343862 -98.481406 -15.413192 12.826865 3.070671 15.848688 -0.874856 15.701366 -10.414037 6.964908 0.206256 0.800938 6.363517 2.532562 0.409480 -0.070510 0.586070 18.233793 -7.471365 5.350225 6.382950 14.093662 -42.466126 32.820870 -46.818826 76.855046 -4.040662 -17.113584 -0.526961 -0.287670 -0.324920 0.115350 -3.042934 -4.381771 -9.647950 14.464886 -15.483308 49.399554 -1.468606 -9.945140 2.476175 0.836270 3.612723 -18.995566 0.597221 -15.690369 50.203829 16.438330 -20.973840 -17.536900 -17.294039 -34.578812 12.699326 -14.525861 2.903649 -15.034447 -123.444655 -82.467860 110.493810 -2.768175 2.276288 0.758750 -0.423760 0.302050 0.036410 13.284145 31.155839 10.384339 14.053046 -1.632576 -23.289383 132.762518 88.802300 131.165275 1.889881 -0.122137 0.047580 -0.114540 -0.272620 -0.209310 
0.114880 17.460220 -5.379290 -38.206366 63.985349 -61.814759 -15.557081 12.592338 3.098041 16.718118 -0.981336 16.530951 -11.317575 6.829066 -2.044480 0.982529 6.484214 2.551348 0.368620 -0.074940 0.550220 18.157336 -7.136133 5.443095 7.256858 16.500841 -44.011134 35.126553 -49.900399 78.169087 -4.210264 -17.676826 -0.547734 -0.321460 -0.288580 0.054080 -3.364235 -4.287855 -9.871137 16.450135 -16.456681 50.375570 -3.145985 -9.331813 -0.429547 1.444847 0.483395 -18.407975 -6.109242 -11.715068 50.016834 14.722580 -19.722930 -15.552540 -19.552069 -32.190715 11.946652 -13.681333 4.388564 -14.037274 -131.894928 -82.705393 120.685906 -2.735061 2.638057 0.679790 -0.412670 0.272620 0.068160 14.714570 31.457555 10.822666 12.295170 -2.599308 -20.697489 134.928846 80.488643 123.028710 2.151196 -0.284675 0.056800 -0.077690 -0.308620 -0.159730 
0.209380 17.439180 -5.426930 -25.599129 54.778175 -47.116174 -15.587684 12.396426 3.005449 16.034543 -0.653698 16.583028 -11.703817 6.684061 -2.456247 1.043133 6.377229 2.568222 0.463710 0.042620 0.564130 18.163628 -6.960855 5.668367 2.098980 16.699189 -49.248746 45.267805 -55.095066 73.448256 -4.258231 -17.523833 -0.503208 -0.277040 -0.339060 0.098220 -3.461703 -4.364325 -10.001435 16.163059 -15.866760 49.507741 -3.901995 -8.593359 -2.223134 1.922486 -0.599418 -18.232842 -8.536893 -8.747641 49.878251 10.753180 -16.564500 -12.492110 -21.225139 -30.441533 10.732446 -12.450464 1.482061 -11.319293 -110.671080 -80.650541 94.767146 -2.975830 1.727391 0.633070 -0.418490 0.295510 0.124600 15.772351 30.630983 11.549125 12.742282 -5.494285 -18.931313 136.723623 77.560944 120.910307 2.229019 -0.629407 0.134640 -0.171020 -0.377440 -0.132770 
0.324320 17.460680 -5.500880 -20.384742 39.438310 -41.032685 -15.460507 12.160517 3.183782 17.872679 -1.070647 19.648569 -11.521090 6.548983 -4.940166 1.109473 6.757296 2.441221 0.595250 0.194650 0.645360 18.308820 -7.034569 5.539887 3.490907 16.444213 -47.988805 54.596807 -57.864350 66.396035 -4.170726 -16.669279 -0.323222 -0.166460 -0.357790 0.122860 -3.476233 -4.353171 -9.894464 18.575688 -17.297692 50.081709 -6.131967 -9.060113 2.527384 3.407558 -1.950927 -18.188695 -10.343454 -3.971610 47.917213 8.145550 -9.829810 -16.649340 -22.772006 -29.896221 12.652172 -9.970124 0.132681 -8.894429 105.343686 -88.904055 -122.014998 -2.351050 4.182964 0.669990 -0.433900 0.334070 0.164630 14.713333 30.973811 11.186886 13.562382 -3.796955 -20.030284 149.789995 76.767291 132.824828 2.105805 -1.181064 0.133070 -0.146060 -0.425130 -0.152640 
0.488520 17.483290 -5.579400 -18.608913 24.351653 -35.302562 -15.296313 11.939291 3.199711 19.299711 -1.448218 19.282592 -11.883182 6.535877 -5.675214 1.182038 6.794268 2.436887 0.604530 0.235100 0.617700 18.489671 -7.119830 5.448224 4.140729 16.553103 -47.202104 57.937775 -59.512380 64.097110 -4.149557 -16.387512 -0.238026 -0.171210 -0.351070 0.118700 -3.785434 -4.051745 -9.706911 23.290432 -20.833802 49.064725 -9.417536 -10.435409 3.015606 4.306968 -5.062217 -18.730544 -16.490790 2.700237 45.954844 6.885560 -4.708760 -17.191210 -22.916025 -27.746271 12.738635 -12.458382 2.239948 -8.195814 99.765738 -82.045537 -107.113002 -3.401920 0.907035 0.660240 -0.450960 0.350350 0.194850 13.105551 31.318088 11.778270 15.800477 -2.371936 -19.875405 160.688410 74.566105 142.784499 2.082412 -1.463222 0.155490 -0.145810 -0.439820 -0.123340 
0.610720 17.484640 -5.586220 -17.480552 14.419283 -31.691724 -15.218516 11.825219 3.229645 20.548675 -1.409455 18.979373 -12.594884 6.594533 -5.884817 1.112187 6.994060 2.362615 0.594370 0.217300 0.572920 18.577020 -7.245077 5.336884 0.296116 13.887785 -47.354910 72.669491 -59.314929 51.154268 -3.721936 -14.626291 0.125054 -0.141170 -0.270990 0.137240 -3.936922 -3.861629 -9.482640 25.425362 -21.715236 47.926680 -10.613482 -10.911042 2.695099 4.583177 -7.721753 -17.377181 -22.159433 6.098431 42.855379 6.099770 -3.316460 -17.416060 -23.731890 -28.504717 8.894417 -11.239026 3.347226 -14.908581 -124.826303 -84.902580 117.890439 -2.862591 2.510780 0.651240 -0.403720 0.296660 0.185120 14.157462 32.563668 12.562767 14.834840 -3.094499 -19.825968 161.518800 76.220584 145.726813 2.031293 -1.480516 0.125600 -0.091440 -0.361320 -0.122290 
